<svg width="40" height="40" viewBox="0 0 40 40" fill="none" xmlns="http://www.w3.org/2000/svg">
<g clip-path="url(#clip0_2_7)">
<path d="M19.9993 0.000312805C8.955 0.000312805 0 8.95453 0 19.9996C0 31.0453 8.955 39.9996 19.9993 39.9996C31.0451 39.9996 40 31.0454 40 19.9996C40 8.95453 31.0451 0.000312805 19.9993 0.000312805ZM26.5598 21.7883C26.5449 21.7883 26.5309 21.7875 26.5151 21.7875C27.155 23.5295 27.8522 25.8138 27.8522 29.1434H12.1478C12.1478 25.8138 12.845 23.5295 13.4849 21.7875C13.4701 21.7875 13.4552 21.7883 13.4402 21.7883C11.0242 21.7883 9.06664 19.8306 9.06664 17.4146C9.06664 15.0001 11.0243 13.0424 13.4402 13.0424C14.1359 13.0424 14.7937 13.2046 15.3778 13.4948C16.3123 11.9152 18.032 10.8556 20.0007 10.8556C21.9681 10.8556 23.6876 11.9152 24.6222 13.4948C25.2062 13.2046 25.8641 13.0424 26.5597 13.0424C28.9757 13.0424 30.9334 15.0001 30.9334 17.4146C30.9334 19.8307 28.9758 21.7883 26.5598 21.7883Z" fill="#D9D9D9"/>
</g>
<defs>
<clipPath id="clip0_2_7">
<rect width="40" height="40" fill="white"/>
</clipPath>
</defs>
</svg>
